<svg id="Layer_1" data-name="Layer 1" xmlns="http://www.w3.org/2000/svg" viewBox="0 0 1366 768"><defs><style>.cls-1{fill:#fff;}.cls-2{fill:#2278f4;}.cls-3{fill:none;stroke:#0c0c0c;stroke-miterlimit:10;stroke-width:31px;}.cls-4{fill:#0c0c0c;}.cls-5{fill:#030303;}</style></defs><title>saico</title><rect class="cls-1" width="1366" height="768"/><path class="cls-2" d="M541.31,460.34V421.12a75.35,75.35,0,0,0,23.16,13.42A74.45,74.45,0,0,0,589.72,439a55.91,55.91,0,0,0,13.05-1.35,30.57,30.57,0,0,0,9.31-3.74,16.32,16.32,0,0,0,5.58-5.64,14.07,14.07,0,0,0,1.84-7,15.23,15.23,0,0,0-2.94-9.19,31.71,31.71,0,0,0-8-7.48A84.25,84.25,0,0,0,596.46,398q-7-3.19-15.07-6.5-20.59-8.58-30.7-21t-10.11-29.9q0-13.72,5.52-23.59a46.84,46.84,0,0,1,15-16.24,67.36,67.36,0,0,1,22-9.37,113.08,113.08,0,0,1,26.47-3A159.31,159.31,0,0,1,633.9,290a95.8,95.8,0,0,1,19.55,5.09v36.64a59.29,59.29,0,0,0-9.62-5.39,76.59,76.59,0,0,0-10.72-3.86,81.93,81.93,0,0,0-11-2.27,77.65,77.65,0,0,0-10.36-.74,54,54,0,0,0-12.26,1.29,31.44,31.44,0,0,0-9.31,3.62,18,18,0,0,0-5.88,5.58,13.21,13.21,0,0,0-2.08,7.29,13.92,13.92,0,0,0,2.33,7.9,26.66,26.66,0,0,0,6.62,6.62,70,70,0,0,0,10.42,6.13q6.13,3,13.85,6.19a154.33,154.33,0,0,1,18.94,9.38,67.33,67.33,0,0,1,14.4,11.21A43.74,43.74,0,0,1,658,399a50.47,50.47,0,0,1,3.19,18.69q0,14.71-5.58,24.7a45.27,45.27,0,0,1-15.14,16.18,65.6,65.6,0,0,1-22.24,8.88,128.6,128.6,0,0,1-26.78,2.7,149,149,0,0,1-27.51-2.45A83.1,83.1,0,0,1,541.31,460.34Z"/><path class="cls-2" d="M844.64,467.08H801.5L789,428H726.5l-12.38,39.1h-42.9l64-175.75h46.94Zm-64.71-69.49-18.87-59.07a76.76,76.76,0,0,1-2.94-15.81h-1A67.07,67.07,0,0,1,754.07,338L735,397.59Z"/><path class="cls-2" d="M906.17,467.08H866.58V291.33h39.59Z"/><path class="cls-2" d="M1072.11,460.83q-19.24,9.31-50.25,9.31-40.44,0-63.61-23.78T935.09,383q0-42.16,26-68.39t67.59-26.23q25.74,0,43.38,6.5V333q-17.65-10.54-40.2-10.54-24.76,0-40,15.56t-15.2,42.16q0,25.49,14.34,40.63t38.61,15.13a82.32,82.32,0,0,0,42.4-11.28Z"/><path class="cls-2" d="M1174,470.14q-37.75,0-61.53-24.57t-23.78-64q0-41.67,24.14-67.41t64-25.74q37.62,0,60.85,24.63t23.22,65q0,41.43-24.08,66.79T1174,470.14Zm1.71-147.68q-20.84,0-33.09,15.63t-12.26,41.36q0,26.1,12.26,41.3t32.11,15.2q20.47,0,32.48-14.77t12-41q0-27.33-11.64-42.53T1175.67,322.46Z"/><path class="cls-2" d="M1291.52,462v-28.8H1320a5.23,5.23,0,0,1,5,5.4v28.44h-28.44A5.15,5.15,0,0,1,1291.52,462Z"/><path d="M533.31,453.34V414.12a75.35,75.35,0,0,0,23.16,13.42A74.45,74.45,0,0,0,581.72,432a55.91,55.91,0,0,0,13.05-1.35,30.57,30.57,0,0,0,9.31-3.74,16.32,16.32,0,0,0,5.58-5.64,14.07,14.07,0,0,0,1.84-7,15.23,15.23,0,0,0-2.94-9.19,31.71,31.71,0,0,0-8-7.48A84.25,84.25,0,0,0,588.46,391q-7-3.19-15.07-6.5-20.59-8.58-30.7-21t-10.11-29.9q0-13.72,5.52-23.59a46.84,46.84,0,0,1,15-16.24,67.36,67.36,0,0,1,22-9.37,113.08,113.08,0,0,1,26.47-3A159.31,159.31,0,0,1,625.9,283a95.8,95.8,0,0,1,19.55,5.09v36.64a59.29,59.29,0,0,0-9.62-5.39,76.59,76.59,0,0,0-10.72-3.86,81.93,81.93,0,0,0-11-2.27,77.65,77.65,0,0,0-10.36-.74,54,54,0,0,0-12.26,1.29,31.44,31.44,0,0,0-9.31,3.62,18,18,0,0,0-5.88,5.58,13.21,13.21,0,0,0-2.08,7.29,13.92,13.92,0,0,0,2.33,7.9,26.66,26.66,0,0,0,6.62,6.62,70,70,0,0,0,10.42,6.13q6.13,3,13.85,6.19a154.33,154.33,0,0,1,18.94,9.38,67.33,67.33,0,0,1,14.4,11.21A43.74,43.74,0,0,1,650,392a50.47,50.47,0,0,1,3.19,18.69q0,14.71-5.58,24.7a45.27,45.27,0,0,1-15.14,16.18,65.6,65.6,0,0,1-22.24,8.88,128.6,128.6,0,0,1-26.78,2.7,149,149,0,0,1-27.51-2.45A83.1,83.1,0,0,1,533.31,453.34Z"/><path d="M836.64,460.08H793.5L781,421H718.5l-12.38,39.1h-42.9l64-175.75h46.94Zm-64.71-69.49-18.87-59.07a76.76,76.76,0,0,1-2.94-15.81h-1A67.07,67.07,0,0,1,746.07,331L727,390.59Z"/><path d="M898.17,460.08H858.58V284.33h39.59Z"/><path d="M1064.11,453.83q-19.24,9.31-50.25,9.31-40.44,0-63.61-23.78T927.09,376q0-42.16,26-68.39t67.59-26.23q25.74,0,43.38,6.5V326q-17.65-10.54-40.2-10.54-24.76,0-40,15.56t-15.2,42.16q0,25.49,14.34,40.63t38.61,15.13a82.32,82.32,0,0,0,42.4-11.28Z"/><path d="M1166,463.14q-37.75,0-61.53-24.57t-23.78-64q0-41.67,24.14-67.41t64-25.74q37.62,0,60.85,24.63t23.22,65q0,41.43-24.08,66.79T1166,463.14Zm1.71-147.68q-20.84,0-33.09,15.63t-12.26,41.36q0,26.1,12.26,41.3t32.11,15.2q20.47,0,32.48-14.77t12-41q0-27.33-11.64-42.53T1167.67,315.46Z"/><path d="M1283.52,455v-28.8H1312a5.23,5.23,0,0,1,5,5.4v28.44h-28.44A5.15,5.15,0,0,1,1283.52,455Z"/><circle class="cls-3" cx="266.5" cy="384" r="162.5"/><polygon class="cls-2" points="451.86 236.53 147.02 386.3 455.23 527.72 371.5 384 451.86 236.53"/><polygon class="cls-4" points="452.25 236.87 126.16 388.32 454.85 527.91 352.55 384.08 452.25 236.87"/><polygon class="cls-5" points="126.16 388.32 454.85 527.91 352.55 384.08 126.16 388.32"/></svg>